<svg width="20" height="39" viewBox="0 0 20 39" fill="none" xmlns="http://www.w3.org/2000/svg">
<path fill-rule="evenodd" clip-rule="evenodd" d="M19.9953 0H0.00476074V37.4395C0.00476074 37.9517 0.291603 38.4203 0.746866 38.6527C1.20266 38.8851 1.7495 38.8419 2.16318 38.541C5.13318 36.3812 10.1174 32.7568 10.1174 32.7568C10.1174 32.7568 14.9163 36.3301 17.8248 38.4951C18.2369 38.8018 18.7869 38.8498 19.2463 38.619C19.7053 38.3876 19.9953 37.917 19.9953 37.4026C19.9953 28.3931 19.9953 0 19.9953 0Z" fill="#FFA300"/>
<path fill-rule="evenodd" clip-rule="evenodd" d="M9.60878 10.4714C9.6693 10.308 9.82457 10.2 9.99878 10.2C10.173 10.2 10.3282 10.308 10.3888 10.4714L11.8735 14.49L16.1487 14.6623C16.3224 14.6692 16.4735 14.7836 16.5272 14.9496C16.5809 15.1151 16.5261 15.2969 16.3893 15.4049L13.0319 18.0606L14.1893 22.1851C14.2366 22.3527 14.1745 22.5319 14.0335 22.6346C13.893 22.7369 13.7035 22.7406 13.5587 22.6441L9.99878 20.2672L6.43878 22.6441C6.29404 22.7406 6.10457 22.7369 5.96404 22.6346C5.82299 22.5319 5.76088 22.3527 5.80825 22.1851L6.96562 18.0606L3.60825 15.4049C3.4714 15.2969 3.41667 15.1151 3.47035 14.9496C3.52404 14.7836 3.67509 14.6692 3.84877 14.6623L8.12403 14.49L9.60878 10.4714Z" fill="white"/>
</svg>
